<?xml version="1.0" standalone="no"?>
<!DOCTYPE svg PUBLIC "-//W3C//DTD SVG 20010904//EN"
 "http://www.w3.org/TR/2001/REC-SVG-20010904/DTD/svg10.dtd">
<svg version="1.0" xmlns="http://www.w3.org/2000/svg"
 width="380.000000pt" height="380.000000pt" viewBox="0 0 380.000000 380.000000"
 preserveAspectRatio="xMidYMid meet">
<metadata>
Created by potrace 1.11, written by Peter Selinger 2001-2013
</metadata>
<g transform="translate(0.000000,380.000000) scale(0.100000,-0.100000)"
fill="#000000" stroke="none">
<path d="M2323 3350 c-26 -11 -52 -34 -69 -59 -30 -47 -32 -47 -50 -23 -11 15
-12 12 -7 -23 l6 -40 -27 24 c-14 14 -26 20 -26 14 0 -6 7 -16 15 -23 31 -26
17 -35 -50 -32 -56 3 -72 0 -109 -22 -51 -30 -64 -52 -35 -61 22 -7 25 -21 6
-28 -8 -3 -28 -24 -46 -46 -22 -27 -27 -39 -15 -34 14 5 16 2 10 -23 -15 -64
-19 -166 -7 -173 9 -6 9 -15 1 -35 -11 -30 -13 -98 -4 -132 4 -16 11 -20 30
-16 16 3 24 0 24 -10 0 -8 16 -30 36 -49 20 -18 44 -50 54 -70 18 -35 37 -49
65 -49 7 0 37 -15 67 -33 l55 -33 -26 -19 c-22 -17 -42 -20 -137 -19 l-112 0
5 -37 c3 -21 2 -50 -1 -65 -7 -25 -9 -26 -56 -20 -28 4 -51 2 -54 -3 -4 -5
-32 -15 -64 -21 -149 -30 -407 -140 -546 -233 -38 -26 -74 -47 -80 -47 -6 0
-20 -7 -30 -15 -31 -23 -72 -18 -106 13 l-31 27 31 92 32 92 -22 23 c-20 21
-30 23 -128 23 -83 0 -114 -4 -139 -18 -55 -30 -214 -248 -238 -325 -7 -24 -7
-24 60 -17 l67 8 -7 -44 c-18 -120 -6 -106 -105 -120 l-88 -12 -10 -41 c-16
-64 -36 -241 -29 -258 9 -24 108 -41 196 -34 42 3 94 1 116 -4 28 -6 -6 -8
-120 -7 -234 3 -237 6 -195 227 11 58 20 108 20 112 0 5 -20 8 -44 8 -57 0
-72 17 -53 62 17 41 51 65 115 79 47 11 50 14 75 73 15 33 56 100 92 149 36
48 65 90 65 92 0 3 -9 1 -19 -5 -11 -5 -41 -10 -68 -10 -56 0 -164 -16 -211
-31 -58 -19 -227 -261 -292 -419 -45 -109 -90 -276 -90 -334 0 -46 3 -53 30
-68 16 -9 32 -28 35 -42 3 -14 7 -38 10 -52 l6 -26 212 7 c117 4 247 13 290
20 96 17 204 65 215 97 25 65 51 158 58 198 4 28 17 57 35 78 16 18 29 36 29
41 0 8 42 21 111 35 17 4 31 16 39 37 18 42 39 62 54 50 7 -6 66 12 166 49
210 78 200 75 193 49 -5 -17 -3 -21 9 -17 23 9 228 65 268 73 34 7 33 6 -25
-38 -33 -25 -96 -82 -140 -126 -78 -80 -79 -81 -68 -112 15 -38 10 -49 -22
-49 -21 0 -55 -23 -55 -37 0 -4 11 -26 25 -49 25 -42 25 -43 6 -53 -40 -22
-51 -40 -40 -68 11 -30 18 -23 -96 -114 -44 -35 -116 -95 -160 -134 l-80 -71
-134 -13 c-74 -7 -144 -16 -155 -21 -18 -6 -27 1 -56 46 -24 36 -42 54 -56 54
-26 0 -139 -69 -159 -97 -11 -16 -13 -28 -5 -48 18 -48 14 -55 -35 -55 -41 0
-52 -5 -94 -45 -27 -25 -67 -73 -90 -107 -44 -65 -52 -111 -28 -158 12 -23 17
-25 72 -21 78 4 98 13 157 66 28 25 54 45 59 45 7 0 -15 -92 -27 -112 -8 -13
67 -20 139 -14 143 14 364 58 469 93 142 47 280 118 468 240 92 60 170 103
192 107 51 9 236 -20 321 -51 105 -37 153 -64 237 -132 89 -71 236 -151 357
-192 49 -17 171 -52 273 -78 l185 -47 59 -58 59 -58 44 44 c25 24 56 63 70 87
22 37 24 46 14 63 -10 16 -9 23 5 39 9 10 27 19 38 19 52 0 96 63 115 165 14
76 14 152 0 161 -7 4 -36 7 -66 7 -69 0 -101 -23 -129 -92 -24 -59 -30 -66
-63 -76 -21 -6 -23 -5 -18 22 3 15 9 47 12 70 l7 43 -60 0 c-64 0 -252 29
-365 56 -52 13 -71 22 -77 38 -4 11 -13 35 -20 52 -10 27 -27 39 -108 77 -82
38 -203 91 -320 139 -26 11 -25 12 26 20 30 4 86 22 125 38 72 31 178 97 184
116 2 6 -8 16 -21 22 -59 27 -86 135 -86 345 l0 153 86 16 c64 12 99 25 139
52 90 59 299 232 348 286 49 55 117 169 142 240 8 24 33 62 55 86 35 38 39 47
33 76 -4 18 -7 46 -8 62 0 26 5 30 45 40 56 14 116 50 136 82 9 12 32 28 52
35 52 16 82 37 82 55 0 12 -6 15 -22 10 -93 -27 -106 -11 -25 30 53 27 69 42
61 56 -9 14 -40 8 -90 -17 -58 -29 -54 -29 -54 -11 0 8 23 31 50 51 88 65 52
92 -40 30 -47 -32 -70 -42 -70 -31 0 2 16 27 35 56 33 50 37 70 13 70 -6 0
-39 -29 -73 -65 -35 -36 -67 -65 -73 -65 -5 0 -12 13 -15 29 -7 33 -34 64 -51
58 -7 -2 -11 -29 -11 -68 0 -45 -7 -79 -23 -113 -12 -27 -22 -52 -22 -57 0 -4
-39 -63 -86 -130 -100 -140 -185 -229 -219 -229 -16 0 -50 -25 -100 -73 -69
-67 -199 -157 -250 -172 -17 -6 -16 -3 6 17 14 12 47 37 72 55 26 18 59 51 74
73 16 23 45 58 65 79 44 46 88 176 88 262 0 55 -23 164 -39 183 -6 7 1 11 20
12 43 2 45 10 10 40 -18 15 -45 52 -60 83 -16 31 -37 64 -48 73 -32 29 -105
56 -181 67 -41 5 -77 12 -80 16 -3 3 -1 15 6 25 10 16 9 21 -9 31 -17 9 -42 7
-111 -7 -96 -19 -118 -15 -128 24 -5 21 -5 21 -47 2z m-1513 -1240 c0 -5 -2
-10 -4 -10 -3 0 -8 5 -11 10 -3 6 -1 10 4 10 6 0 11 -4 11 -10z m-60 -50 c0
-5 -4 -10 -10 -10 -5 0 -10 5 -10 10 0 6 5 10 10 10 6 0 10 -4 10 -10z m-40
-60 c0 -5 -4 -10 -10 -10 -5 0 -10 5 -10 10 0 6 5 10 10 10 6 0 10 -4 10 -10z
m-36 -51 c-3 -5 -10 -7 -15 -3 -5 3 -7 10 -3 15 3 5 10 7 15 3 5 -3 7 -10 3
-15z m-49 -49 c3 -5 1 -10 -4 -10 -6 0 -11 5 -11 10 0 6 2 10 4 10 3 0 8 -4
11 -10z m505 -42 c0 -7 -5 -30 -11 -50 -6 -25 -7 -50 0 -72 8 -31 6 -37 -14
-50 -15 -10 -25 -27 -27 -47 -3 -29 -8 -33 -50 -44 -49 -12 -63 -4 -37 22 18
18 -1 35 -35 30 -17 -2 -48 -11 -68 -20 -20 -9 -39 -13 -42 -8 -3 4 11 27 30
50 29 33 34 46 29 69 -4 20 -1 33 10 42 8 7 15 21 15 31 0 34 57 59 133 59 47
0 67 -4 67 -12z m-630 -278 c0 -5 -4 -10 -10 -10 -5 0 -10 5 -10 10 0 6 5 10
10 10 6 0 10 -4 10 -10z m-20 -66 c0 -8 -5 -12 -10 -9 -6 4 -8 11 -5 16 9 14
15 11 15 -7z m-6 -65 c-3 -5 -10 -7 -15 -3 -5 3 -7 10 -3 15 3 5 10 7 15 3 5
-3 7 -10 3 -15z m-4 -39 c0 -5 -4 -10 -10 -10 -5 0 -10 5 -10 10 0 6 5 10 10
10 6 0 10 -4 10 -10z m10 -60 c0 -5 -4 -10 -10 -10 -5 0 -10 5 -10 10 0 6 5
10 10 10 6 0 10 -4 10 -10z m-115 -151 c-100 -8 -169 -22 -222 -44 -38 -16
-49 -14 -40 8 3 8 36 19 78 26 41 7 79 15 84 16 6 2 51 3 100 3 l90 -1 -90 -8z
m90 -38 c19 -5 -19 -10 -105 -14 -74 -3 -151 -9 -170 -12 -52 -9 -13 14 43 24
51 11 191 11 232 2z m595 -581 c-27 -17 -444 -77 -458 -65 -1 1 0 9 3 17 4 10
33 19 88 27 172 26 394 39 367 21z"/>
<path d="M384 1705 c-4 -9 -2 -21 4 -27 15 -15 44 -1 40 19 -4 23 -36 29 -44
8z"/>
</g>
</svg>
